# xmcd
#
# Track frame offsets: 
#        150
#        21000
#        38250
#        54375
#        72225
#        90675
#        109425
#        124125
#
# Disc length: 1974 seconds
#
# Revision: 7
# Processed by: cddbd v1.5.2PL0 Copyright (c) Steve Scherf et al.
# Submitted via: ExactAudioCopy v1.0b6
#
DISCID=6207b408
DTITLE=Blues and Boogie Explosion - Blues and Boogie Explosion
DYEAR=1981
DGENRE=Jazz
TTITLE0=Bob Hall, George Green Piano - The Fish
TTITLE1=Ian Steward, George Green Piano - Chicken Shack Boogie
TTITLE2=Bob Hall, Ian Steward Piano - KC Jump
TTITLE3=Bob Hall, Ian Steward Piano - Night Train
TTITLE4=Bob Hall, George Green Piano - All Night Long
TTITLE5=Bob Hall, George Green Piano - I Need You
TTITLE6=Bob Hall, Ian Steward Piano - The Rainmaker
TTITLE7=Bob Hall, George Green Piano - Old Bill
EXTD=
EXTT0=
EXTT1=
EXTT2=
EXTT3=
EXTT4=
EXTT5=
EXTT6=
EXTT7=
PLAYORDER=
